# xmcd CD database file
#
# Track frame offsets:
#	150
#	80281
#	176812
#	228935
#
# Disc length: 3109 seconds
#
# Revision: 1
# Processed by: cddbd v1.5.1PL0 Copyright (c) Steve Scherf et al.
# Submitted via: CDex 1.51
#
DISCID=250c2304
DTITLE=Dexter Gordon - Live in Copenhagen
DYEAR=1900
DGENRE=Jazz
TTITLE0=Stella by Starlight
TTITLE1=Satin Doll
TTITLE2='round Midnight
TTITLE3=Sonnymoon for Two
EXTD=
EXTT0=
EXTT1=
EXTT2=
EXTT3=
PLAYORDER=
